<svg height="511pt" viewBox="-103 1 511 511.99987" width="511pt" xmlns="http://www.w3.org/2000/svg"><path d="m239.40625 225.472656v-59.679687c0-7.546875-6.140625-13.6875-13.6875-13.6875h-174.816406c-7.542969 0-13.683594 6.140625-13.683594 13.6875v59.679687c0 7.546875 6.140625 13.6875 13.683594 13.6875h174.816406c7.546875 0 13.6875-6.140625 13.6875-13.6875zm-15.007812-1.320312h-172.171876v-57.035156h172.167969v57.035156zm0 0"/><path d="m77.367188 254.503906c-14.230469 0-25.804688 11.574219-25.804688 25.804688 0 14.230468 11.574219 25.804687 25.804688 25.804687 14.230468 0 25.804687-11.574219 25.804687-25.804687 0-14.230469-11.574219-25.804688-25.804687-25.804688zm0 36.601563c-5.953126 0-10.796876-4.84375-10.796876-10.796875s4.84375-10.796875 10.796876-10.796875c5.953124 0 10.796874 4.84375 10.796874 10.796875s-4.84375 10.796875-10.796874 10.796875zm0 0"/><path d="m138.3125 254.503906c-14.230469 0-25.804688 11.574219-25.804688 25.804688 0 14.230468 11.574219 25.804687 25.804688 25.804687s25.804688-11.574219 25.804688-25.804687c0-14.230469-11.578126-25.804688-25.804688-25.804688zm0 36.601563c-5.953125 0-10.796875-4.84375-10.796875-10.796875s4.84375-10.796875 10.796875-10.796875 10.796875 4.84375 10.796875 10.796875-4.84375 10.796875-10.796875 10.796875zm0 0"/><path d="m199.257812 306.113281c14.226563 0 25.804688-11.574219 25.804688-25.804687 0-14.230469-11.578125-25.804688-25.804688-25.804688-14.230468 0-25.808593 11.574219-25.808593 25.804688 0 14.230468 11.578125 25.804687 25.808593 25.804687zm0-36.601562c5.953126 0 10.796876 4.84375 10.796876 10.796875s-4.84375 10.796875-10.796876 10.796875c-5.953124 0-10.796874-4.84375-10.796874-10.796875s4.84375-10.796875 10.796874-10.796875zm0 0"/><path d="m77.367188 313.207031c-14.230469 0-25.804688 11.574219-25.804688 25.804688s11.574219 25.804687 25.804688 25.804687c14.230468 0 25.804687-11.574218 25.804687-25.804687s-11.574219-25.804688-25.804687-25.804688zm0 36.597657c-5.953126 0-10.796876-4.839844-10.796876-10.792969 0-5.957031 4.84375-10.796875 10.796876-10.796875 5.953124 0 10.796874 4.839844 10.796874 10.796875 0 5.953125-4.84375 10.792969-10.796874 10.792969zm0 0"/><path d="m138.3125 313.207031c-14.230469 0-25.804688 11.574219-25.804688 25.804688s11.574219 25.804687 25.804688 25.804687 25.804688-11.574218 25.804688-25.804687-11.578126-25.804688-25.804688-25.804688zm0 36.597657c-5.953125 0-10.796875-4.839844-10.796875-10.792969 0-5.957031 4.84375-10.796875 10.796875-10.796875s10.796875 4.839844 10.796875 10.796875c0 5.953125-4.84375 10.792969-10.796875 10.792969zm0 0"/><path d="m199.257812 364.816406c14.226563 0 25.804688-11.578125 25.804688-25.804687 0-14.230469-11.578125-25.808594-25.804688-25.808594-14.230468 0-25.808593 11.578125-25.808593 25.808594 0 14.226562 11.578125 25.804687 25.808593 25.804687zm0-36.601562c5.953126 0 10.796876 4.84375 10.796876 10.796875s-4.84375 10.796875-10.796876 10.796875c-5.953124 0-10.796874-4.84375-10.796874-10.796875s4.84375-10.796875 10.796874-10.796875zm0 0"/><path d="m77.367188 371.90625c-14.230469 0-25.804688 11.578125-25.804688 25.804688 0 14.230468 11.574219 25.808593 25.804688 25.808593 14.230468 0 25.804687-11.578125 25.804687-25.808593 0-14.226563-11.574219-25.804688-25.804687-25.804688zm0 36.601562c-5.953126 0-10.796876-4.84375-10.796876-10.796874 0-5.953126 4.84375-10.796876 10.796876-10.796876 5.953124 0 10.796874 4.84375 10.796874 10.796876 0 5.953124-4.84375 10.796874-10.796874 10.796874zm0 0"/><path d="m138.3125 371.90625c-14.230469 0-25.804688 11.578125-25.804688 25.804688 0 14.230468 11.574219 25.808593 25.804688 25.808593s25.804688-11.578125 25.804688-25.808593c0-14.226563-11.578126-25.804688-25.804688-25.804688zm0 36.601562c-5.953125 0-10.796875-4.84375-10.796875-10.796874 0-5.953126 4.84375-10.796876 10.796875-10.796876s10.796875 4.84375 10.796875 10.796876c0 5.953124-4.84375 10.796874-10.796875 10.796874zm0 0"/><path d="m77.367188 430.609375c-14.230469 0-25.804688 11.574219-25.804688 25.804687 0 14.230469 11.574219 25.804688 25.804688 25.804688 14.230468 0 25.804687-11.574219 25.804687-25.804688 0-14.230468-11.574219-25.804687-25.804687-25.804687zm0 36.601563c-5.953126 0-10.796876-4.84375-10.796876-10.796876 0-5.953124 4.84375-10.796874 10.796876-10.796874 5.953124 0 10.796874 4.84375 10.796874 10.796874 0 5.953126-4.84375 10.796876-10.796874 10.796876zm0 0"/><path d="m138.3125 430.609375c-14.230469 0-25.804688 11.574219-25.804688 25.804687 0 14.230469 11.574219 25.804688 25.804688 25.804688s25.804688-11.574219 25.804688-25.804688c0-14.230468-11.578126-25.804687-25.804688-25.804687zm0 36.601563c-5.953125 0-10.796875-4.84375-10.796875-10.796876 0-5.953124 4.84375-10.796874 10.796875-10.796874s10.796875 4.84375 10.796875 10.796874c0 5.953126-4.84375 10.796876-10.796875 10.796876zm0 0"/><path d="m173.167969 463.933594c0 10.078125 8.199219 18.28125 18.28125 18.28125h15.617187c10.078125 0 18.28125-8.203125 18.28125-18.28125v-73.746094c0-10.078125-8.203125-18.28125-18.28125-18.28125h-15.617187c-10.082031 0-18.28125 8.203125-18.28125 18.28125zm15.007812-73.746094c0-1.804688 1.46875-3.273438 3.273438-3.273438h15.617187c1.804688 0 3.273438 1.46875 3.273438 3.273438v73.746094c0 1.800781-1.46875 3.269531-3.273438 3.269531h-15.617187c-1.804688 0-3.273438-1.46875-3.273438-3.269531zm0 0"/><path d="m297.28125 189.378906c4.144531 0 7.503906-3.359375 7.503906-7.503906v-35.289062c0-8.914063-7.253906-16.167969-16.167968-16.167969h-12.496094v-20.84375c0-12.351563-10.046875-22.402344-22.402344-22.402344h-37.65625v-65.058594c0-4.664062-2.191406-8.984375-6.011719-11.851562l-9.421875-7.070313c-5.675781-4.253906-13.597656-4.253906-19.273437 0l-7.300781 5.480469c-.324219.242187-.933594.242187-1.253907 0l-7.300781-5.480469c-5.675781-4.257812-13.597656-4.253906-19.273438 0l-7.296874 5.476563c-.324219.242187-.933594.242187-1.257813 0l-7.289063-5.472657c-5.675781-4.261718-13.601562-4.257812-19.277343 0l-7.292969 5.476563c-.324219.242187-.933594.242187-1.257812 0l-7.292969-5.476563c-5.675781-4.257812-13.601563-4.257812-19.273438 0l-9.417969 7.066407c-3.820312 2.867187-6.011718 7.1875-6.011718 11.847656v65.0625h-37.65625c-12.351563 0-22.402344 10.050781-22.402344 22.402344v179.441406c0 .269531.015625.542969.042969.8125l4.171875 38.214844c.449218 4.121093 4.164062 7.089843 8.273437 6.644531 4.121094-.449219 7.097657-4.152344 6.648438-8.273438l-4.125-37.808593v-179.027344c0-4.078125 3.316406-7.394531 7.394531-7.394531h14.3125v25.59375c0 5.792968 4.714844 10.507812 10.507812 10.507812h181.171876c5.792968 0 10.507812-4.714844 10.507812-10.507812v-25.59375h14.3125c4.078125 0 7.394531 3.316406 7.394531 7.394531v179.027344l-22.015625 201.792969c-.410156 3.757812-3.566406 6.59375-7.347656 6.59375h-186.875c-3.777344 0-6.941406-2.835938-7.347656-6.59375l-14.160156-129.777344c-.449219-4.121094-4.152344-7.097656-8.273438-6.644532-4.121094.449219-7.097656 4.152344-6.648438 8.273438l14.160157 129.777344c1.242187 11.386718 10.816406 19.972656 22.269531 19.972656h186.871094c11.453125 0 21.03125-8.585938 22.273437-19.972656l3.085938-28.285156h14.417969c8.207031 0 15.113281-6.148438 16.0625-14.300782l17.148437-147.441406c.03125-.285156.050781-.574219.050781-.867188v-85.65625c0-4.140624-3.359375-7.503906-7.503906-7.503906-4.148438 0-7.507812 3.363282-7.507812 7.503906v85.222657l-17.097657 147.007812c-.066406.585938-.5625 1.027344-1.148437 1.027344h-12.785156l17.335937-158.90625c.03125-.269531.042969-.542969.042969-.8125v-143.589844h12.496094c.636718 0 1.15625.523438 1.15625 1.160157v35.289062c0 4.144531 3.359374 7.503906 7.507812 7.503906zm-236.71875-66.105468h-8.335938v-21.089844h8.335938zm140.492188 0h-125.484376v-101c.003907 0 .007813-.003907.015626-.007813l9.410156-7.066406c.324218-.242188.933594-.242188 1.257812 0l7.292969 5.472656c5.675781 4.261719 13.601563 4.261719 19.273437.003906l7.296876-5.476562c.320312-.242188.933593-.242188 1.253906 0l7.292968 5.472656c5.671876 4.261719 13.601563 4.261719 19.277344.003906l7.296875-5.476562c.320313-.242188.929688-.246094 1.253907 0l7.300781 5.476562c5.671875 4.257813 13.597656 4.257813 19.269531 0l7.304688-5.480469c.320312-.242187.933593-.242187 1.253906 0l9.433594 7.089844zm23.34375 0h-8.335938v-21.089844h8.335938zm0 0"/><path d="m104.324219 36.703125h-8.855469c-4.144531 0-7.503906 3.363281-7.503906 7.507813 0 4.144531 3.359375 7.503906 7.503906 7.503906h8.855469c4.148437 0 7.503906-3.359375 7.503906-7.503906 0-4.144532-3.359375-7.507813-7.503906-7.507813zm0 0"/><path d="m181.152344 36.703125h-53.949219c-4.144531 0-7.503906 3.363281-7.503906 7.507813 0 4.144531 3.359375 7.503906 7.503906 7.503906h53.949219c4.144531 0 7.503906-3.359375 7.503906-7.503906 0-4.144532-3.359375-7.507813-7.503906-7.507813zm0 0"/><path d="m104.324219 66.199219h-8.855469c-4.144531 0-7.503906 3.359375-7.503906 7.503906s3.359375 7.503906 7.503906 7.503906h8.855469c4.148437 0 7.503906-3.359375 7.503906-7.503906s-3.359375-7.503906-7.503906-7.503906zm0 0"/><path d="m181.152344 66.199219h-53.949219c-4.144531 0-7.503906 3.359375-7.503906 7.503906s3.359375 7.503906 7.503906 7.503906h53.949219c4.144531 0 7.503906-3.359375 7.503906-7.503906s-3.359375-7.503906-7.503906-7.503906zm0 0"/><path d="m104.324219 95.695312h-8.855469c-4.144531 0-7.503906 3.359376-7.503906 7.503907s3.359375 7.503906 7.503906 7.503906h8.855469c4.148437 0 7.503906-3.359375 7.503906-7.503906s-3.359375-7.503907-7.503906-7.503907zm0 0"/><path d="m181.152344 95.695312h-53.949219c-4.144531 0-7.503906 3.359376-7.503906 7.503907s3.359375 7.503906 7.503906 7.503906h53.949219c4.144531 0 7.503906-3.359375 7.503906-7.503906s-3.359375-7.503907-7.503906-7.503907zm0 0"/></svg>