<?xml version="1.0" encoding="utf-8"?>
<!-- Generator: Adobe Illustrator 19.0.0, SVG Export Plug-In . SVG Version: 6.00 Build 0)  -->
<svg version="1.1" xmlns="http://www.w3.org/2000/svg" xmlns:xlink="http://www.w3.org/1999/xlink" x="0px" y="0px"
	 viewBox="0 0 1100 800" style="enable-background:new 0 0 1100 800;" xml:space="preserve">
<style type="text/css">
	.st0{fill:#E6233B;}
	.st1{fill:#3FBFB4;}
	.st2{fill:#F9A229;}
	.st3{fill:#0A1B2A;}
	.st4{fill:#0C1D2C;}
	.st5{fill:#0C1D2B;}
	.st6{fill:#E61F37;}
	.st7{fill:#292949;}
	.st8{fill:#CECECE;}
	.st9{fill:#FF979C;}
	.st10{fill:#0F1F2D;}
	.st11{fill:#43C0B5;}
	.st12{fill:#D67086;}
	.st13{fill:#F89F22;}
	.st14{fill:#FFFFFF;}
	.st15{opacity:0.19;fill:#2B292A;}
</style>
<g id="Layer_2">
	<path class="st0" d="M199.8,258.3c-0.1,2-0.9,3.6-2.4,4.9c-0.6,0.5-1.3,0.8-1.9,1.2c-5.5,3.1-10.9,6.3-16.4,9.4
		c-0.7,0.4-1.3,0.8-2,1.1c-2.8,1.2-6,0.2-7.7-2.4c-1.1-1.7-1.6-3.6-1.3-5.7c0.3-1.9,1.3-3.3,2.9-4.3c1.4-0.9,2.9-1.7,4.4-2.6
		c4.3-2.5,8.6-5,12.9-7.5c0.9-0.5,1.8-1,2.8-1.4c2.8-1,5.8,0.1,7.3,2.6C199.4,255.1,199.8,256.6,199.8,258.3z"/>
	<path class="st1" d="M199.8,234.7c-0.2,1.9-0.7,3.9-2.3,5.5c-1.9,1.8-4.3,2.4-6.7,1.3c-1.2-0.5-2.3-1.2-3.5-1.9
		c-4.8-2.8-9.6-5.5-14.4-8.3c-0.7-0.4-1.3-0.8-1.9-1.2c-2.2-1.4-3.1-3.5-2.8-6c0.1-1.1,0.5-2.2,1-3.2c1.6-3.2,5.2-4.4,8.6-2.7
		c1.8,0.9,3.6,2,5.4,3.1c4.2,2.4,8.3,4.8,12.5,7.2c0.6,0.3,1.1,0.7,1.7,1.1C199,230.8,199.8,232.5,199.8,234.7z"/>
	<path class="st0" d="M257.4,268.4c0,4.3-3.9,7.3-8.1,6.1c-0.9-0.3-1.7-0.7-2.5-1.2c-5.7-3.3-11.4-6.6-17.1-9.8
		c-0.6-0.3-1.1-0.7-1.7-1.1c-2.3-1.9-3-5-1.7-7.6c1.3-2.6,4.2-4,7.1-3.4c0.9,0.2,1.8,0.6,2.6,1c5.9,3.4,11.9,6.8,17.8,10.3
		C256.4,264.2,257.4,265.9,257.4,268.4z"/>
	<path class="st2" d="M206.1,213.4c0-3.3,0-6.6,0-9.8c0-0.9,0-1.9,0.3-2.8c1-2.9,3.3-4.6,6.4-4.5c2.8,0.1,5.1,2,5.8,4.9
		c0.2,0.8,0.3,1.7,0.3,2.5c0,6.5,0,12.9,0,19.4c0,0.8-0.1,1.7-0.3,2.5c-0.7,3-3.4,5.1-6.3,5c-3.1-0.1-5.7-2.5-6.1-5.6
		c-0.1-1.2-0.1-2.4-0.1-3.7C206.1,218.7,206.1,216.1,206.1,213.4z"/>
	<path class="st1" d="M232,241.5c-2.7-0.2-4.6-1.3-5.7-3.8c-1.1-2.5-0.5-5.1,1.4-7c0.5-0.5,1-0.9,1.6-1.2
		c6.1-3.5,12.2-7.1,18.3-10.5c1.7-1,3.5-1.3,5.4-0.7c2.3,0.8,3.9,2.3,4.3,4.7c0.5,2.6-0.3,4.9-2.5,6.4c-1.6,1-3.2,1.9-4.8,2.9
		c-4.6,2.6-9.1,5.3-13.7,7.9C235,240.9,233.6,241.6,232,241.5z"/>
	<path class="st2" d="M206.1,279.4c0-3.3,0-6.6,0-9.9c0-0.7,0-1.5,0.2-2.2c0.6-2.9,3.1-5,6-5.1c3.1-0.1,5.6,1.9,6.3,5
		c0.2,0.9,0.3,1.9,0.3,2.8c0,6.3,0,12.6,0,18.9c0,1,0,2.1-0.3,3.1c-0.9,2.8-3.3,4.6-6.1,4.5c-2.8,0-5.2-1.9-6-4.7
		c-0.3-0.9-0.3-1.9-0.3-2.8C206.1,285.8,206.1,282.6,206.1,279.4z"/>
	<path class="st3" d="M165.9,239.2c1.5,0,3,0,4.5,0c3,0.1,5.2,1.9,5.9,4.8c0.4,1.7,0.4,3.3,0,5c-0.7,2.6-2.8,4.4-5.5,4.5
		c-3.3,0.1-6.6,0.1-9.9,0c-3.2-0.1-5.6-2.6-5.8-5.8c0-0.8,0-1.7,0-2.5c0.2-3.3,2.6-5.8,6-5.9C162.7,239.1,164.3,239.2,165.9,239.2
		C165.9,239.2,165.9,239.2,165.9,239.2z"/>
	<path class="st4" d="M260.1,239.7c1.2,0,2.5,0.1,3.7,0c3.4-0.3,7,2.6,6.6,7c-0.1,1.5-0.4,2.8-1.3,3.9c-1.1,1.4-2.5,2.3-4.3,2.3
		c-3.2,0.1-6.4,0.2-9.6,0c-2.8-0.2-4.6-1.9-5.4-4.6c-0.8-2.8,0.1-5.7,2.2-7.4c1.1-0.8,2.3-1.3,3.6-1.3
		C257.1,239.7,258.6,239.7,260.1,239.7C260.1,239.7,260.1,239.7,260.1,239.7z"/>
	<path class="st4" d="M186.5,196.3c2.1,0,3.9,0.8,5,2.6c1.8,2.8,3.5,5.6,5,8.5c1.6,3.1,0.5,6.6-2.5,8.3c-2.8,1.6-6.3,0.9-8.2-1.9
		c-1.8-2.7-3.6-5.5-5-8.5C178.8,201.1,181.8,196.3,186.5,196.3z"/>
	<path class="st5" d="M227.3,283.4c0-2.9,1.6-5.3,4.2-6.2c2.5-0.9,5.4,0,7.1,2.2c0.7,0.9,1.2,1.9,1.7,2.9c1.1,2,2.3,3.9,3.2,5.9
		c1.8,3.8-0.4,8-4.6,8.9c-2.5,0.5-5-0.6-6.5-3c-1.2-2-2.3-4.1-3.5-6.1c-0.4-0.7-0.7-1.3-1.1-2C227.5,285.2,227.3,284.3,227.3,283.4z
		"/>
	<path class="st5" d="M237.8,195.6c4.7,0,7.7,4.6,5.7,8.9c-0.7,1.6-1.7,3.1-2.6,4.7c-0.7,1.3-1.4,2.7-2.3,3.9
		c-1.8,2.7-5.2,3.5-8,2.1c-3-1.5-4.4-5.1-2.9-8.1c1.4-2.9,3.1-5.8,4.8-8.6C233.7,196.5,235.6,195.6,237.8,195.6z"/>
	<path class="st4" d="M186.4,296.4c-4.8,0-7.3-5-5.9-8.2c0.1-0.3,0.2-0.7,0.4-1c1.6-2.7,3.1-5.4,4.8-8c1.7-2.7,4.9-3.6,7.7-2.4
		c3.3,1.4,4.9,5.2,3.3,8.4c-1.5,3-3.3,5.9-5.2,8.7C190.3,295.7,188.5,296.4,186.4,296.4z"/>
	<path class="st0" d="M395.6,293.7c0,1-0.4,1.8-1.2,2.4c-0.3,0.2-0.6,0.4-0.9,0.6c-2.7,1.6-5.4,3.1-8.1,4.7c-0.3,0.2-0.6,0.4-1,0.5
		c-1.4,0.6-3,0.1-3.8-1.2c-0.5-0.8-0.8-1.8-0.6-2.8c0.1-0.9,0.6-1.6,1.4-2.1c0.7-0.4,1.4-0.8,2.2-1.3c2.1-1.2,4.3-2.5,6.4-3.7
		c0.4-0.3,0.9-0.5,1.4-0.7c1.4-0.5,2.9,0.1,3.6,1.3C395.4,292.1,395.6,292.9,395.6,293.7z"/>
	<path class="st1" d="M395.6,282.1c-0.1,1-0.3,1.9-1.1,2.7c-0.9,0.9-2.2,1.2-3.3,0.6c-0.6-0.3-1.2-0.6-1.7-0.9
		c-2.4-1.4-4.8-2.7-7.1-4.1c-0.3-0.2-0.6-0.4-1-0.6c-1.1-0.7-1.5-1.7-1.4-3c0.1-0.6,0.2-1.1,0.5-1.6c0.8-1.6,2.6-2.2,4.3-1.3
		c0.9,0.5,1.8,1,2.7,1.5c2.1,1.2,4.1,2.4,6.2,3.6c0.3,0.2,0.6,0.3,0.8,0.5C395.2,280.1,395.6,280.9,395.6,282.1z"/>
	<path class="st0" d="M424.1,298.7c0,2.1-2,3.6-4,3c-0.4-0.1-0.9-0.3-1.3-0.6c-2.8-1.6-5.6-3.2-8.5-4.9c-0.3-0.2-0.6-0.3-0.8-0.5
		c-1.1-0.9-1.5-2.5-0.8-3.8c0.6-1.3,2.1-2,3.5-1.7c0.5,0.1,0.9,0.3,1.3,0.5c2.9,1.7,5.9,3.4,8.8,5.1
		C423.6,296.6,424.1,297.5,424.1,298.7z"/>
	<path class="st2" d="M398.7,271.5c0-1.6,0-3.3,0-4.9c0-0.5,0-0.9,0.2-1.4c0.5-1.4,1.6-2.3,3.2-2.2c1.4,0.1,2.5,1,2.8,2.4
		c0.1,0.4,0.1,0.8,0.1,1.2c0,3.2,0,6.4,0,9.6c0,0.4,0,0.8-0.1,1.2c-0.3,1.5-1.7,2.5-3.1,2.5c-1.5-0.1-2.8-1.3-3-2.8
		c-0.1-0.6,0-1.2,0-1.8C398.7,274.1,398.7,272.8,398.7,271.5z"/>
	<path class="st1" d="M411.6,285.4c-1.3-0.1-2.3-0.7-2.8-1.9c-0.5-1.2-0.3-2.5,0.7-3.4c0.2-0.2,0.5-0.4,0.8-0.6c3-1.7,6-3.5,9.1-5.2
		c0.8-0.5,1.7-0.7,2.7-0.3c1.2,0.4,1.9,1.1,2.1,2.3c0.2,1.3-0.1,2.4-1.3,3.2c-0.8,0.5-1.6,1-2.4,1.4c-2.3,1.3-4.5,2.6-6.8,3.9
		C413,285.1,412.3,285.4,411.6,285.4z"/>
	<path class="st2" d="M398.7,304.2c0-1.6,0-3.3,0-4.9c0-0.4,0-0.7,0.1-1.1c0.3-1.5,1.5-2.5,3-2.5c1.5,0,2.8,0.9,3.1,2.5
		c0.1,0.4,0.1,0.9,0.1,1.4c0,3.1,0,6.2,0,9.4c0,0.5,0,1-0.2,1.5c-0.4,1.4-1.6,2.3-3,2.2c-1.4,0-2.6-1-3-2.3
		c-0.1-0.5-0.1-0.9-0.1-1.4C398.7,307.3,398.7,305.7,398.7,304.2z"/>
	<path class="st3" d="M378.8,284.3c0.7,0,1.5,0,2.2,0c1.5,0.1,2.6,0.9,2.9,2.4c0.2,0.8,0.2,1.7,0,2.5c-0.4,1.3-1.4,2.2-2.7,2.2
		c-1.6,0.1-3.3,0.1-4.9,0c-1.6-0.1-2.8-1.3-2.8-2.9c0-0.4,0-0.8,0-1.3c0.1-1.6,1.3-2.9,3-2.9C377.2,284.2,378,284.3,378.8,284.3
		C378.8,284.3,378.8,284.3,378.8,284.3z"/>
	<path class="st4" d="M425.5,284.5c0.6,0,1.2,0,1.8,0c1.7-0.1,3.5,1.3,3.3,3.5c-0.1,0.7-0.2,1.4-0.6,1.9c-0.5,0.7-1.3,1.1-2.1,1.2
		c-1.6,0-3.2,0.1-4.7,0c-1.4-0.1-2.3-0.9-2.7-2.3c-0.4-1.4,0-2.8,1.1-3.7c0.5-0.4,1.1-0.6,1.8-0.6
		C424,284.5,424.7,284.5,425.5,284.5C425.5,284.5,425.5,284.5,425.5,284.5z"/>
	<path class="st4" d="M389,263c1,0,1.9,0.4,2.5,1.3c0.9,1.4,1.7,2.8,2.5,4.2c0.8,1.5,0.2,3.3-1.2,4.1c-1.4,0.8-3.1,0.5-4.1-0.9
		c-0.9-1.4-1.8-2.7-2.5-4.2C385.2,265.4,386.7,263,389,263z"/>
	<path class="st5" d="M409.2,306.2c0-1.4,0.8-2.6,2.1-3.1c1.3-0.4,2.7,0,3.5,1.1c0.3,0.4,0.6,0.9,0.9,1.4c0.5,1,1.1,1.9,1.6,2.9
		c0.9,1.9-0.2,4-2.3,4.4c-1.2,0.2-2.5-0.3-3.2-1.5c-0.6-1-1.1-2-1.7-3c-0.2-0.3-0.4-0.7-0.5-1C409.3,307,409.2,306.6,409.2,306.2z"
		/>
	<path class="st5" d="M414.4,262.7c2.3,0,3.8,2.3,2.8,4.4c-0.4,0.8-0.8,1.6-1.3,2.3c-0.4,0.6-0.7,1.3-1.1,1.9
		c-0.9,1.3-2.6,1.7-3.9,1c-1.5-0.7-2.2-2.5-1.4-4c0.7-1.5,1.5-2.9,2.4-4.3C412.4,263.1,413.3,262.7,414.4,262.7z"/>
	<path class="st4" d="M389,312.6c-2.4,0-3.6-2.5-2.9-4.1c0.1-0.2,0.1-0.4,0.2-0.5c0.8-1.3,1.5-2.7,2.4-3.9c0.9-1.3,2.4-1.8,3.8-1.2
		c1.6,0.7,2.4,2.6,1.6,4.2c-0.8,1.5-1.7,2.9-2.6,4.3C390.9,312.2,390,312.6,389,312.6z"/>
	<path class="st0" d="M675.2,188.6c0,1.4-0.6,2.6-1.7,3.5c-0.4,0.3-0.9,0.6-1.4,0.9c-3.9,2.3-7.8,4.5-11.7,6.7
		c-0.5,0.3-0.9,0.5-1.4,0.8c-2,0.8-4.3,0.2-5.5-1.7c-1.2-1.8-1.4-4-0.2-6.3c2.1-1.5,4.4-2.6,6.6-4c2-1.4,4.2-2.5,6.4-3.6
		c2.1-1.1,4.1-2.9,7.3-0.5C674.6,185.6,675.1,187,675.2,188.6z"/>
	<path class="st1" d="M675.2,171.8c-0.3,2.2-0.9,4.5-4.5,5.5c-3-0.5-5.2-3-8.2-3.5c-1.4-0.2-2.7-1-3.6-2.2c-1.2-1.4-2.8-2.1-4.3-3.1
		c-1.6-1-2.2-2.5-2-4.3c0.1-0.8,0.3-1.6,0.7-2.3c1.1-2.3,3.7-3.2,6.2-1.9c2.8,1.4,5.3,3.4,8.4,4.2c0.9,0.2,1.7,0.8,2.3,1.6
		c0.8,1.1,2.2,1.5,3.3,2.4C674.6,168.9,675.2,170.2,675.2,171.8z"/>
	<path class="st0" d="M716.4,195.8c0,3.1-2.8,5.3-5.8,4.4c-0.6-0.2-1.2-0.5-1.8-0.8c-4.1-2.3-8.1-4.7-12.2-7
		c-0.4-0.2-0.8-0.5-1.2-0.8c-1.6-1.3-2.1-3.6-1.2-5.5c0.9-1.9,3-2.9,5-2.4c0.7,0.1,1.3,0.4,1.9,0.7c4.2,2.5,8.5,4.9,12.7,7.4
		C715.6,192.8,716.4,194.1,716.4,195.8z"/>
	<path class="st2" d="M679.7,156.5c0-2.3,0-4.7,0-7c0-0.7,0-1.3,0.2-2c0.7-2.1,2.4-3.3,4.6-3.2c2,0.1,3.6,1.4,4.1,3.5
		c0.1,0.6,0.2,1.2,0.2,1.8c0,4.6,0,9.3,0,13.9c0,0.6,0,1.2-0.2,1.8c-0.5,2.1-2.4,3.7-4.5,3.6c-2.2-0.1-4.1-1.8-4.3-4
		c-0.1-0.9,0-1.7,0-2.6C679.7,160.3,679.7,158.4,679.7,156.5z"/>
	<path class="st1" d="M698.2,176.6c-1.9-0.1-3.3-1-4.1-2.7c-0.8-1.8-0.4-3.6,1-5c0.7-0.7,1.6-1.2,2.5-1.3c3.2-0.4,6.3-1.6,8.4-4.1
		c2.8-3.3,5.9-5.4,9.7-1.8c1.1,2.6,0.9,4.9-1.3,6.4c-1.1,0.7-2.3,1.4-3.5,2c-3.3,1.9-6.5,3.8-9.8,5.6
		C700.3,176.2,699.3,176.7,698.2,176.6z"/>
	<path class="st2" d="M679.7,203.7c0-2.4,0-4.7,0-7.1c0-0.5,0-1.1,0.1-1.6c0.4-2.1,2.2-3.6,4.3-3.6c2.2,0,4,1.3,4.5,3.6
		c0.1,0.6,0.2,1.3,0.2,2c0,4.5,0,9,0,13.5c0,0.7,0,1.5-0.2,2.2c-0.6,2-2.4,3.3-4.4,3.2c-2,0-3.7-1.4-4.3-3.4c-0.2-0.7-0.2-1.3-0.2-2
		C679.7,208.3,679.7,206,679.7,203.7z"/>
	<path class="st3" d="M651,175c1.1,0,2.1,0,3.2,0c2.1,0.1,3.7,1.4,4.2,3.4c0.3,1.2,0.3,2.4,0,3.6c-0.5,1.9-2,3.2-3.9,3.2
		c-2.3,0.1-4.7,0.1-7,0c-2.3-0.1-4-1.9-4.1-4.2c0-0.6,0-1.2,0-1.8c0.1-2.4,1.9-4.1,4.3-4.2C648.7,174.9,649.8,175,651,175
		C651,175,651,175,651,175z"/>
	<path class="st4" d="M718.3,175.3c0.9,0,1.8,0.1,2.6,0c2.4-0.2,5,1.8,4.8,5c-0.1,1.8-0.7,3.4-3.3,4.5c0,0,0,0,0,0
		c-3,0.1-6,0.2-8.9-0.1c0,0,0,0,0,0c-3.5-2.3-3.3-6.5-0.9-8.4c0.8-0.6,1.6-0.9,2.6-0.9C716.2,175.3,717.2,175.3,718.3,175.3
		C718.3,175.3,718.3,175.3,718.3,175.3z"/>
	<path class="st4" d="M665.6,144.3c1.5,0,2.8,0.6,3.6,1.8c1.3,2,2.5,4,3.6,6c1.2,2.2,0.3,4.7-1.8,5.9c-2,1.2-4.5,0.7-5.9-1.4
		c-1.3-2-2.6-4-3.6-6.1C660.1,147.7,662.3,144.3,665.6,144.3z"/>
	<path class="st5" d="M694.8,206.6c0-2.1,1.2-3.8,3-4.4c1.8-0.6,3.9,0,5,1.5c0.5,0.6,0.8,1.4,1.2,2.1c0.8,1.4,1.6,2.8,2.3,4.2
		c1.3,2.8-0.3,5.7-3.3,6.3c-1.8,0.4-3.6-0.4-4.6-2.1c-0.9-1.4-1.7-2.9-2.5-4.4c-0.3-0.5-0.5-0.9-0.8-1.4
		C694.9,207.8,694.9,207.2,694.8,206.6z"/>
	<path class="st5" d="M702.4,143.8c3.3,0,5.5,3.3,4.1,6.4c-0.5,1.2-1.2,2.2-1.8,3.4c-0.5,0.9-1,1.9-1.6,2.8
		c-1.3,1.9-3.7,2.5-5.7,1.5c-2.2-1.1-3.1-3.6-2.1-5.8c1-2.1,2.2-4.1,3.4-6.2C699.4,144.4,700.7,143.8,702.4,143.8z"/>
	<path class="st4" d="M665.6,215.9c-3.4,0-5.2-3.6-4.2-5.9c0.1-0.2,0.2-0.5,0.3-0.7c1.1-1.9,2.2-3.8,3.4-5.7
		c1.2-1.9,3.5-2.5,5.5-1.7c2.4,1,3.5,3.7,2.3,6c-1.1,2.1-2.4,4.2-3.7,6.2C668.4,215.4,667.1,215.9,665.6,215.9z"/>
	<path class="st0" d="M854.6,514.9c0,1.1-0.5,1.9-1.3,2.6c-0.3,0.2-0.7,0.4-1,0.6c-2.9,1.7-5.8,3.3-8.7,5c-0.3,0.2-0.7,0.4-1.1,0.6
		c-1.5,0.6-3.2,0.1-4.1-1.3c-0.9-1.4-1-3-0.1-4.7c1.6-1.1,3.3-1.9,4.9-3c1.5-1,3.1-1.9,4.8-2.7c1.6-0.8,3.1-2.2,5.4-0.3
		C854.2,512.7,854.6,513.7,854.6,514.9z"/>
	<path class="st1" d="M854.6,502.4c-0.2,1.6-0.7,3.3-3.4,4.1c-2.2-0.4-3.9-2.2-6.1-2.6c-1.1-0.2-2-0.8-2.7-1.6
		c-0.9-1-2.1-1.5-3.2-2.3c-1.2-0.8-1.6-1.9-1.5-3.2c0.1-0.6,0.2-1.2,0.5-1.7c0.8-1.7,2.8-2.4,4.6-1.4c2.1,1,3.9,2.5,6.2,3.1
		c0.7,0.2,1.2,0.6,1.7,1.2c0.6,0.8,1.6,1.1,2.5,1.8C854.2,500.2,854.6,501.2,854.6,502.4z"/>
	<path class="st0" d="M885.3,520.3c0,2.3-2.1,3.9-4.3,3.3c-0.5-0.1-0.9-0.4-1.4-0.6c-3-1.7-6.1-3.5-9.1-5.2
		c-0.3-0.2-0.6-0.3-0.9-0.6c-1.2-1-1.6-2.7-0.9-4.1c0.7-1.4,2.2-2.1,3.8-1.8c0.5,0.1,0.9,0.3,1.4,0.6c3.2,1.8,6.3,3.6,9.5,5.5
		C884.7,518,885.3,519,885.3,520.3z"/>
	<path class="st2" d="M858,491c0-1.7,0-3.5,0-5.2c0-0.5,0-1,0.2-1.5c0.5-1.6,1.8-2.5,3.4-2.4c1.5,0.1,2.7,1.1,3.1,2.6
		c0.1,0.4,0.1,0.9,0.1,1.3c0,3.4,0,6.9,0,10.3c0,0.4,0,0.9-0.1,1.3c-0.4,1.6-1.8,2.7-3.4,2.7c-1.6-0.1-3-1.4-3.2-3
		c-0.1-0.6,0-1.3,0-1.9C858,493.8,858,492.4,858,491z"/>
	<path class="st1" d="M871.7,505.9c-1.4-0.1-2.5-0.7-3-2c-0.6-1.3-0.3-2.7,0.8-3.7c0.5-0.5,1.2-0.9,1.9-1c2.4-0.3,4.7-1.2,6.2-3
		c2.1-2.4,4.4-4,7.2-1.4c0.8,1.9,0.6,3.7-0.9,4.7c-0.8,0.6-1.7,1-2.6,1.5c-2.4,1.4-4.8,2.8-7.3,4.2
		C873.3,505.6,872.6,506,871.7,505.9z"/>
	<path class="st2" d="M858,526.1c0-1.8,0-3.5,0-5.3c0-0.4,0-0.8,0.1-1.2c0.3-1.6,1.6-2.7,3.2-2.7c1.7,0,3,1,3.4,2.6
		c0.1,0.5,0.1,1,0.1,1.5c0,3.4,0,6.7,0,10.1c0,0.6,0,1.1-0.2,1.6c-0.5,1.5-1.8,2.4-3.3,2.4c-1.5,0-2.8-1-3.2-2.5
		c-0.1-0.5-0.1-1-0.1-1.5C858,529.5,858,527.8,858,526.1z"/>
	<path class="st3" d="M836.6,504.7c0.8,0,1.6,0,2.4,0c1.6,0.1,2.8,1,3.1,2.5c0.2,0.9,0.2,1.8,0,2.7c-0.4,1.4-1.5,2.4-2.9,2.4
		c-1.7,0.1-3.5,0.1-5.2,0c-1.7-0.1-3-1.4-3.1-3.1c0-0.4,0-0.9,0-1.3c0.1-1.8,1.4-3.1,3.2-3.2C834.9,504.7,835.7,504.7,836.6,504.7
		C836.6,504.7,836.6,504.7,836.6,504.7z"/>
	<path class="st4" d="M886.7,505c0.7,0,1.3,0,2,0c1.8-0.1,3.7,1.4,3.5,3.7c-0.1,1.4-0.5,2.5-2.5,3.3c0,0,0,0,0,0
		c-2.2,0.1-4.4,0.1-6.7-0.1c0,0,0,0,0,0c-2.6-1.7-2.5-4.9-0.7-6.3c0.6-0.4,1.2-0.7,1.9-0.7C885.1,505,885.9,505,886.7,505
		C886.7,505,886.7,505,886.7,505z"/>
	<path class="st4" d="M847.5,481.9c1.1,0,2.1,0.4,2.7,1.4c0.9,1.5,1.9,3,2.7,4.5c0.9,1.6,0.2,3.5-1.3,4.4c-1.5,0.9-3.4,0.5-4.4-1
		c-1-1.5-1.9-2.9-2.7-4.5C843.4,484.4,845,481.9,847.5,481.9z"/>
	<path class="st5" d="M869.2,528.3c0-1.5,0.9-2.8,2.2-3.3c1.3-0.5,2.9,0,3.8,1.2c0.4,0.5,0.6,1,0.9,1.5c0.6,1,1.2,2.1,1.7,3.1
		c1,2-0.2,4.3-2.4,4.7c-1.3,0.3-2.7-0.3-3.4-1.6c-0.7-1.1-1.2-2.2-1.8-3.3c-0.2-0.3-0.4-0.7-0.6-1
		C869.3,529.2,869.3,528.7,869.2,528.3z"/>
	<path class="st5" d="M874.8,481.5c2.5,0,4.1,2.4,3,4.7c-0.4,0.9-0.9,1.7-1.4,2.5c-0.4,0.7-0.7,1.4-1.2,2.1c-1,1.4-2.7,1.9-4.2,1.1
		c-1.6-0.8-2.3-2.7-1.5-4.3c0.8-1.6,1.6-3.1,2.5-4.6C872.7,482,873.6,481.5,874.8,481.5z"/>
	<path class="st4" d="M847.5,535.2c-2.5,0-3.9-2.7-3.1-4.4c0.1-0.2,0.1-0.4,0.2-0.5c0.8-1.4,1.6-2.9,2.5-4.2
		c0.9-1.4,2.6-1.9,4.1-1.3c1.8,0.7,2.6,2.8,1.7,4.5c-0.8,1.6-1.8,3.1-2.8,4.6C849.6,534.8,848.6,535.2,847.5,535.2z"/>
</g>
<g id="Object">
	<g>
		<g>
			<g>
				<g>
					<polygon class="st6" points="847.2,455.1 849.9,515.9 842.2,619.3 830.7,620.1 816.7,526.2 797.4,446.7 					"/>
					<polygon class="st7" points="831.1,625 844,630.3 849.7,623.7 843.1,617.9 830.6,618.8 					"/>
				</g>
				<g>
					<polygon class="st6" points="765.8,433.6 763.3,479.5 770.8,616.2 782.3,616.8 799.6,527.2 814.8,428.8 					"/>
					<polygon class="st7" points="782,621.7 769.2,627.3 763.3,620.7 769.9,614.8 782.3,615.4 					"/>
				</g>
				<g>
					<path class="st8" d="M832.8,298.1l-35.9-3.9c0,0-20,2.1-33.6,49.6c-7.5,26.4-9.8,68-10.4,99.8c0.8,4.5,5.8,24.4,26.6,21
						c35.8-5.8,54.9-11.6,70.5-8.7c13.3,2.9,12.2-15.4,10.7-29.4l-5.3-43.2L832.8,298.1z"/>
				</g>
				<g>
					<path class="st9" d="M825.8,253.4c-9.1-2-18.4-3.8-27.4-2c-2,0.4-4.1,1.1-5.2,2.8c-0.4,0.7-0.6,1.4-0.8,2.2
						c-2.3,8.5-5.2,21.1,0.4,29c1.1,1.5,2.5,2.7,4,3.6c2.1,1.3,4.3,2.2,6.7,2.6c-0.5,2.1-1.2,4.2-2,6.2c2.1,3.1,11.7,3.5,13.5,0.5
						c0.1-2.6,0.2-5.2,0.3-7.8c1.2-0.5,2.3-1.1,3.4-1.8c4.1-2.7,6.9-6.9,8.4-11.5c1.7-5,4.1-9.8,5.7-14.9c0.6-1.9,1-4,0-5.7
						c-1-1.8-3.3-2.4-5.3-2.9C827,253.7,826.4,253.5,825.8,253.4z"/>
					<path class="st6" d="M795.7,258.3c4.5-2.9,11.2-4.1,15.4-3.8c12.7,0.9,17.4,10.3,18.1,22c3.5-4.5,10.1-10.1,10.5-15.8
						c0.3-4.7-0.3-11.1-3-15.1c-2.5-3.8-8.8-5.9-12.5-8.1c-3.5-2.1-7.1-4.1-10.6-6.2c-0.7-0.4-1.5-0.9-2.3-1c-1-0.2-2,0.1-3,0.3
						c-8.3,2.2-16.7,4.3-25,6.5c-1.6,0.4-3.4,1-4,2.6c-0.4,0.9-0.1,2,0.1,3c0.9,4.3,2.8,8.8,3.2,13.1c0.5,2.5,2,15.6,6.5,14.1
						c1.3-2.2,1.5-4.8,2.6-7.2C792.4,260.9,793.9,259.4,795.7,258.3z"/>
				</g>
				<polygon class="st8" points="796.8,294.3 783.6,298.3 735.1,349.2 732.2,365.9 755.4,404.2 761.6,390.2 751.8,361.9 
					767.4,350.9 788.2,304.1 				"/>
			</g>
		</g>
		<g>
			<g id="XMLID_1018_">
				<g id="XMLID_1020_">
					<polygon class="st7" points="317.7,619.8 317.1,626.1 304.3,631.6 298.8,624.8 305.5,618.9 318.3,613.4 					"/>
				</g>
				<g id="XMLID_1019_">
					<polygon class="st10" points="328.4,491.2 318.6,617.8 306.2,619.4 295.9,511.5 287.5,477.3 					"/>
				</g>
			</g>
			<g id="XMLID_1015_">
				<g id="XMLID_1017_">
					<polygon class="st10" points="358,458 365.5,608.4 354.2,610.5 330.6,496.7 317.7,463.7 					"/>
				</g>
				<g id="XMLID_1016_">
					<polygon class="st7" points="355.2,615.5 368.6,619.6 373.5,612 366.2,606.8 354,609.1 					"/>
				</g>
			</g>
			<g id="XMLID_1014_">
				<path class="st11" d="M342.1,295.5c-9.1-7.6-31.2-3.2-42.8-3.2c1.1,0-11,64.7-11.4,70.4c-1.4,20.6-7.8,41.4-16.6,60.2
					c-3.7,7.9-8.1,15.6-10.8,24c-4.4,13.9-4.4,30.2-3.1,44.5c12.4,3.4,24.1,9.8,36.9,11.5c10.5,1.4,21.2-0.6,31.7-1.5
					c12.5-1.1,25.1-0.8,37.6-1.8c12.5-1,25.2-3.3,36.3-9.2c-5-9.6-8.8-19.7-11.9-30c-3.2-10.2-7.2-21.6-8.4-32.3
					c-1-9.6-1.2-19.4-2.6-29.2c-1.6-11.4-3.6-22.7-6.3-33.9c-3.1-12.8-7.2-25.3-12.3-37.4c-3.8-9.2-8.4-24.4-15.6-31.5
					C342.6,295.9,342.3,295.7,342.1,295.5z"/>
			</g>
			<polygon class="st12" points="347.1,301.6 379.9,354.1 397.9,329.1 414.9,331.9 406.8,372.5 384.5,389.1 347.1,366.6 			"/>
		</g>
		<g>
			<polygon class="st13" points="556.5,309.2 542,314.2 518.6,349.3 488.6,329.2 479.1,340.5 494.2,363 521.5,382.4 556.5,345.8 			
				"/>
			<polygon class="st9" points="619.3,192.3 620.4,176.6 607.7,166.7 602.3,173.7 608.1,184 606,189.3 611.7,197.8 			"/>
			<g>
				<g>
					<g>
						<polygon class="st6" points="522.5,410.3 521.5,499.4 531,614.1 543.9,614.1 559.3,508.2 577,402.2 						"/>
						<polygon class="st7" points="543.8,619.5 529.8,626.5 522.8,619.5 529.8,612.5 543.8,612.5 						"/>
					</g>
					<g>
						<polygon class="st6" points="611,410.3 611.3,461.8 602.6,614.1 589.7,614.1 568,513 556.5,402.2 						"/>
						<polygon class="st7" points="589.7,619.5 603.7,626.5 610.7,619.5 603.7,612.5 589.7,612.5 						"/>
					</g>
				</g>
				<path class="st13" d="M624.4,441.3c0.3,8.2,0.1,19.1-3.3,19.5c-0.6,0.1-1.3-0.2-1.8-0.5c-6-2.9-10.3-7-16.2-9.8
					c-6.2-2.9-13.2-4.5-20.1-5.6c-10.2-1.6-20.7-2.6-31-2.7c-8.9-0.1-18.1,4-26.5,6.2c-3.2,0.9-5.9,3.2-8.5,5.1
					c-4,2.7-5.7,3.8-5.2-1.8c0.9-9.1,1.8-18.2,2.9-27.2c2.2-18.1,5.3-36.1,10.4-53.6c2-6.7,4.2-13.3,6.5-19.8c2.8-8,5.5-16,8.3-24.1
					c3.4-10,9.2-17,19.3-20.5c8.7-3,19.6-3.8,28.1,0.4c9.4,4.7,13.9,20.7,18.5,29.2c4,7.5,9.1,27.9,10.6,35.9
					c1.8,9.7,3.5,19.4,4.8,29c1.5,10.7,2.5,21.3,2.8,31.9C624.1,434.1,624.3,437.4,624.4,441.3z"/>
				<g>
					<path class="st9" d="M567.2,308.7c0.2,0.2,0.4,0.3,0.7,0.4c0.5,0.2,1.1,0.1,1.7,0c2.3-0.3,4.6-0.5,6.9-0.8
						c-0.8-7.1,3.4-8.7,7.4-13.2c4.1-4.6,2.8-10.8,2.6-16.5c-0.1-1.6-0.1-3.2-0.8-4.6c-1.2-2.5-3.9-3.9-6.5-4.7
						c-6.7-2.1-14.4-1.6-20.3,2.2c-1.6,1-3,2.3-3.9,4c-1.3,2.6-1,5.6-0.6,8.5c0.6,4.4,1.9,8.7,4.4,12.4c2.3,3.5,6.7,5.1,7.3,9.3
						C566.1,306.8,566.4,308,567.2,308.7z"/>
					<g>
						<path class="st6" d="M554.5,278.9c0.4,1.8,1.2,3.6,0.8,5.3c-2.8-1-4.7-3.8-5.7-6.8c-0.5-1.3-0.8-2.7-0.7-4.1
							c0.1-1.4,0.7-2.8,1.8-3.6c1.6-1.1,4.3-0.7,4.8,1.3C556.1,273.1,554,276.3,554.5,278.9z"/>
						<path class="st6" d="M539.6,263.3c0.1-2.1,0.9-4,2.8-5.3c1.6-1.1,3.5-2,4.5-3.8c0.8-1.4,0.9-3.1,1.7-4.4
							c1.4-2.5,4.4-3.2,7-4.1c6.6-2.1,10.1-4.5,17-1.8c4.9,1.9,11.3,2.2,15.9,5c1.9,1.2,3.5,3,4.9,5.1c4.6,7.2,5.7,17.4,2.7,24.9
							c-0.7,1.7-1.5,3.2-2.4,4.7c-1.8,3-3.8,6.6-7,8.1c-0.2-1.4-1.2-2.2-1.6-3.6c-0.2-1-0.2-2-0.1-3c0.2-4,1.4-10.2-2.5-12.2
							c-5-2.5-14.4-0.2-19.2,1.9c-4.3,1.9-11.5,4.3-16,2.3C542.9,275.3,539.4,267.9,539.6,263.3z"/>
					</g>
				</g>
			</g>
			<polygon class="st13" points="583.4,306.1 614.9,253.3 607.5,196.2 621.6,191.1 641.8,248 642.9,276.7 606.1,336.1 			"/>
		</g>
		<g id="XMLID_1010_">
			<g id="XMLID_1012_">
				<g id="XMLID_1013_">
					<path class="st9" d="M216.8,388.2c-2.5,2.1-11,4.3-14.2,2.6c-7.3-3.8,3-7.2,6.3-9.1c-1-0.9-2.1-1.8-2.9-2.9
						c-0.7-1,10.8-3.7,12.3-3.2c3.7,1.2,3.7,3.7,5.3,7C221.4,384.4,219.1,386.3,216.8,388.2z"/>
				</g>
			</g>
			<g id="XMLID_1011_">
				<polygon class="st11" points="313.4,318.4 277.7,383.8 215.9,390.9 221.3,377.1 263.7,360.8 283.6,318 306.4,299.2 				"/>
			</g>
		</g>
		<g id="XMLID_1006_">
			<g id="XMLID_1009_">
				<path class="st6" d="M322.7,260.5c5.8,1.1,12.9,6,14.3,12.1c0.7,2.9-0.3,5.7,0.6,8.8c1.6,6.2-5.8,15.2,1.6,19.5
					c3.8,2.2,8.5,1.5,12.8,0.7c0.5-0.1,1.1-0.2,1.5-0.5c0.7-0.5,0.8-1.6,0.5-2.4c-0.3-0.8-0.8-1.5-1.3-2.3
					c-5.1-7.6-3.8-18.6-5.8-27.2c-2-8.7-6.6-17.3-15.2-20.8c-4.3,2.8-7.4,7.3-8.5,12.3L322.7,260.5z"/>
			</g>
			<g id="XMLID_1008_">
				<path class="st9" d="M329.9,297.8c5.6-2.4,9.3-8.1,10.5-14c1.2-5.9,0.3-12.1-1.4-18c-5.5-19.4-29.8-13.9-35.5,2.7
					C298.6,283.1,313.7,304.7,329.9,297.8z"/>
			</g>
			<g id="XMLID_1007_">
				<path class="st6" d="M301.6,308.5c2.7-1.7,5.4-3.5,7-6.7c2.6-5.1,1.5-13.1,1.8-18.7c0.3-5.9,0.9-12.3,4.9-16.5
					c2.6-2.8,5.9-3.6,9.5-3.9c2.5-0.3,2.7,0.7,4.7-0.8c1.5-1.2,2.7-4.4,2.9-6.2c0.4-3.1-1.1-6.2-3.3-8.4c-3.4-3.4-7.2-4.9-11.9-4.6
					c-16.3,1-27.8,11.7-31,28.1c-1.6,7.8,0.8,16.2-0.9,23.8c-1.1,4.7-3.7,8-4.5,12.9c-2,12.8-7.6,29.5-5.9,42.5
					c0.1,0.5,0.2,1,0.6,1.3c0.8,0.6,1.8-0.3,2.4-1.1c3.4-4.7,6.7-9.3,10.1-14c1.3-1.8,2.7-3.7,3.4-5.8c1.9-5.3,0.1-11.8,3.4-16.3
					C296.4,311.6,299,310,301.6,308.5z"/>
			</g>
		</g>
		<polygon class="st8" points="833.1,298.5 796.2,339.4 748.8,343.3 742.1,358.5 811.7,377 831.5,363.6 844,317.6 		"/>
		<g>
			<g>
				<path class="st14" d="M315.7,327.9c-0.9,16.1-14.7,28.4-30.8,27.5l-7.2,129.2c16.1,0.9,28.4,14.7,27.5,30.8L623,533.1
					c5.3,0.3,9.8-3.8,10.1-9.1l9.4-168.4c0.3-5.3-3.8-9.8-9.1-10.1L315.7,327.9z"/>
				<path class="st11" d="M791.9,513.2l7.2-129.2c-16.1-0.9-28.4-14.7-27.5-30.8l-119.6-6.6c-4.9-0.3-9.2,3.5-9.4,8.4L633,524.7
					c-0.3,4.9,3.5,9.2,8.4,9.4l119.6,6.6C762,524.6,775.8,512.3,791.9,513.2z"/>
				<path class="st15" d="M634.6,345.6l-8.5-0.5c4.6,0.3,8.1,4.8,7.8,10.1l-9.4,168.4c-0.3,5.3-4.3,9.4-8.9,9.1l8.5,0.5
					c4.6,0.3,8.6-3.8,8.9-9.1l9.4-168.4C642.7,350.4,639.2,345.9,634.6,345.6z"/>
			</g>
		</g>
		<polygon class="st9" points="395.8,326.1 409.6,324.9 418.4,335.9 412.4,340.6 403.3,335.8 398.7,337.7 391.2,332.9 		"/>
		<polygon class="st9" points="485.4,327.4 470.6,333 466.9,348.6 475.5,350.6 482.5,341.1 488.2,340.7 493.5,332.1 		"/>
		<polygon class="st9" points="770.1,350 773.6,357.6 761,363.1 749.5,355 755.6,344.5 		"/>
		<polygon class="st9" points="744.2,346.8 747.7,354.4 735.2,359.9 723.6,351.8 729.7,341.3 		"/>
	</g>
	<g>
		<path class="st14" d="M743.3,428c-16.2,7.3-28.5,17.6-33.5,22.2l-10.2-10.3c-0.3-0.3-7.2,4.5-7,4.6l17.9,23.5
			c0.1,0.2,0.3,0.3,0.6,0.3c0,0,0.1,0,0.1,0c0.3,0,0.5-0.2,0.7-0.4c4.4-8,17.6-24.4,33.1-35.5c0.3-0.2,0.4-0.6,0.3-0.9
			C745.3,431.6,743.5,427.9,743.3,428L743.3,428z M743.3,428"/>
		<path class="st14" d="M759.1,411.2c-31.1-3.9-34.9-16.4-34.9-16.5c-0.2-0.6-0.7-1.1-1.3-1.2l0,0c-0.6-0.1-1.3,0.2-1.6,0.8
			c-0.1,0.1-6.9,11.3-37.9,7.4c-0.9-0.1-1.6,0.5-1.8,1.3l-6.7,53c-2.7,21.7,32.4,42.9,33.9,43.8c0.2,0.1,0.4,0.2,0.6,0.2
			c0.2,0,0.4,0,0.6-0.1c1.7-0.5,41-12.4,43.7-34l6.7-53C760.6,412.1,760,411.3,759.1,411.2L759.1,411.2z M745.6,461.7
			c-2.1,17-32.9,26.3-34.2,26.6c-0.2,0.1-0.3,0.1-0.5,0c-0.2,0-0.3-0.1-0.5-0.2c-1.1-0.7-28.7-17.3-26.5-34.3l5.2-41.5
			c0.1-0.7,0.7-1.1,1.4-1.1c24.3,3.1,29.7-5.7,29.7-5.8c0.2-0.4,0.7-0.7,1.2-0.6l0,0c0.5,0.1,0.9,0.4,1,0.9c0,0.1,3,9.9,27.4,12.9
			c0.7,0.1,1.1,0.7,1.1,1.4L745.6,461.7z M745.6,461.7"/>
	</g>
</g>
</svg>
